<svg width="96" height="96" viewBox="0 0 96 96" fill="none" xmlns="http://www.w3.org/2000/svg">
<rect width="96" height="96" fill="#424141"/>
<path d="M68.1965 67.9939L76.5801 72.825L73.1704 76.0389H68.1965V67.9939Z" fill="#211E1E"/>
<path d="M46.2151 77.6718L47.8998 80.9066C47.8998 80.9066 54.6385 82.6948 54.6385 80.9066C54.6385 79.1186 46.2151 77.6718 46.2151 77.6718Z" fill="#211E1E"/>
<path d="M34.2522 56.2177C32.716 47.1352 20.3826 45.7053 20.3826 45.7053C20.3826 45.7053 26.7796 54.1511 25.4923 67.3143C24.935 73.0148 31.5378 74.5658 34.2522 77.009C38.6466 80.9648 43.8282 80.052 46.2966 80.1627C67.1811 84.6843 70.6898 67.1239 70.6898 67.1239L67.1008 74.556C67.1008 74.556 49.5812 89.2734 27.6823 70.351C27.6823 70.351 20.6053 57.9409 26.5873 49.3261C28.7772 46.1724 34.252 36.4777 34.252 36.4777C34.252 36.4777 38.6319 36.802 38.6319 43.0188L37.667 43.6871C41.6624 43.6871 37.667 43.6871 37.667 43.6871C37.667 43.6871 30.2564 44.1494 34.2522 36.4777C38.2477 28.806 34.2522 22.8115 34.2522 22.8115C34.2522 22.8115 43.8314 25.9587 45.2019 31.2216C47.3916 39.6316 41.6625 20.6719 53.649 13C53.649 13 52.1817 25.9654 56.1771 25.9654C56.1771 25.9654 58.3669 28.3015 61.6779 28.3436C61.6779 28.3436 65.5064 16.8359 61.6779 16.8359C61.6779 16.8359 77.6402 20.672 69.6496 43.6872L69.6432 40.9323C69.6432 34.7154 76.1124 34.7151 76.1124 34.7151C76.1124 34.7151 69.6332 34.7151 76.1091 47.1489C82.5842 59.5823 76.1077 65.799 76.1077 65.799C56.6814 90.666 40.8226 77.7098 40.8226 77.7098L39.5421 74.8052C39.5421 74.8052 48.2873 88.6733 72.282 75.5288C72.282 75.5288 76.9555 73.5048 78.0506 71.4023C79.0557 69.4719 80.5249 66.8665 80.2404 62.9926C79.3736 51.1938 89 50.3777 89 50.3777C89 50.3777 76.9052 46.5749 74.7657 51.4287" fill="#211E1E"/>
<path d="M52.5013 61.0068C62.1768 61.0068 70.0204 55.5942 70.0204 48.9175C70.0204 42.2408 62.1768 36.8282 52.5013 36.8282C42.8257 36.8282 34.9821 42.2408 34.9821 48.9175C34.9821 55.5942 42.8257 61.0068 52.5013 61.0068Z" fill="#211E1E"/>
<path d="M39.7267 55.7508L25.4557 67.3144L24.3246 63.1093V59.9556V56.6852V54.6995V51.5455L25.4557 48.3918L31.3141 47.3406L39.7267 55.7508Z" fill="#211E1E"/>
<path d="M80.2404 55.2834C78.0505 58.4368 81.3353 70.468 71.4806 72.5705C71.4806 72.5705 60.5311 79.9292 51.7714 80.5132C51.7714 80.5132 38.6319 86.2366 29.8719 75.7243C29.8719 75.7243 22.2076 76.7755 24.3974 57.8532C24.3974 57.8532 24.3974 53.181 23.3023 52.1299" fill="#211E1E"/>
<path d="M74.7655 44.0702C74.7655 44.0702 80.2402 54.5825 79.1451 55.6337C78.0504 56.6851 64.9109 56.6851 64.9109 56.6851L74.7655 44.0702Z" fill="#211E1E"/>
<path d="M63.8507 72.4538L69.3082 75.6164L67.1006 77.7277H63.8507V72.4538Z" fill="#211E1E"/>
<path d="M49.5811 78.8043L50.6761 80.9066C50.6761 80.9066 55.0563 81.8007 55.0563 80.9066C55.0563 80.0125 49.5811 78.8043 49.5811 78.8043Z" fill="#211E1E"/>
<path d="M41.1154 63.9091C42.8784 63.9091 44.3077 61.0601 44.3077 57.5454C44.3077 54.0308 42.8784 51.1818 41.1154 51.1818C39.3524 51.1818 37.9231 54.0308 37.9231 57.5454C37.9231 61.0601 39.3524 63.9091 41.1154 63.9091Z" fill="#424141"/>
<path d="M62.1846 61.3636C65.0054 61.3636 67.2923 56.2352 67.2923 49.9091C67.2923 43.583 65.0054 38.4545 62.1846 38.4545C59.3638 38.4545 57.0769 43.583 57.0769 49.9091C57.0769 56.2352 59.3638 61.3636 62.1846 61.3636Z" fill="#424141"/>
</svg>
