<svg width="83" height="70" viewBox="0 0 83 70" fill="none" xmlns="http://www.w3.org/2000/svg">
<path d="M62.1965 54.9939L70.5802 59.825L67.1704 63.0389H62.1965V54.9939Z" fill="#424141"/>
<path d="M40.2151 64.6717L41.8998 67.9066C41.8998 67.9066 48.6385 69.6948 48.6385 67.9066C48.6385 66.1186 40.2151 64.6717 40.2151 64.6717Z" fill="#424141"/>
<path d="M28.2522 43.2177C26.716 34.1352 14.3826 32.7053 14.3826 32.7053C14.3826 32.7053 20.7796 41.1511 19.4924 54.3143C18.935 60.0148 25.5378 61.5658 28.2522 64.009C32.6466 67.9648 37.8282 67.052 40.2966 67.1627C61.1811 71.6843 64.6898 54.1239 64.6898 54.1239L61.1008 61.556C61.1008 61.556 43.5813 76.2734 21.6823 57.351C21.6823 57.351 14.6053 44.9409 20.5873 36.3261C22.7772 33.1724 28.2521 23.4777 28.2521 23.4777C28.2521 23.4777 32.6319 23.802 32.6319 30.0188L31.6671 30.6871C35.6624 30.6871 31.6671 30.6871 31.6671 30.6871C31.6671 30.6871 24.2564 31.1494 28.2522 23.4777C32.2477 15.806 28.2522 9.81149 28.2522 9.81149C28.2522 9.81149 37.8314 12.9587 39.2019 18.2216C41.3916 26.6316 35.6625 7.67189 47.649 0C47.649 0 46.1817 12.9654 50.1771 12.9654C50.1771 12.9654 52.3669 15.3015 55.6779 15.3436C55.6779 15.3436 59.5064 3.83595 55.6779 3.83595C55.6779 3.83595 71.6402 7.67199 63.6496 30.6872L63.6433 27.9323C63.6433 21.7154 70.1124 21.7151 70.1124 21.7151C70.1124 21.7151 63.6332 21.7151 70.1091 34.1489C76.5842 46.5823 70.1077 52.799 70.1077 52.799C50.6815 77.666 34.8226 64.7098 34.8226 64.7098L33.5421 61.8052C33.5421 61.8052 42.2874 75.6733 66.282 62.5288C66.282 62.5288 70.9556 60.5048 72.0506 58.4023C73.0557 56.4719 74.5249 53.8665 74.2404 49.9926C73.3737 38.1938 83 37.3777 83 37.3777C83 37.3777 70.9052 33.5749 68.7658 38.4287" fill="#424141"/>
<path d="M46.5013 48.0068C56.1768 48.0068 64.0204 42.5942 64.0204 35.9175C64.0204 29.2408 56.1768 23.8282 46.5013 23.8282C36.8257 23.8282 28.9821 29.2408 28.9821 35.9175C28.9821 42.5942 36.8257 48.0068 46.5013 48.0068Z" fill="#424141"/>
<path d="M33.7267 42.7508L19.4557 54.3144L18.3246 50.1093V46.9556V43.6852V41.6995V38.5456L19.4557 35.3919L25.3141 34.3406L33.7267 42.7508Z" fill="#424141"/>
<path d="M74.2404 42.2834C72.0505 45.4368 75.3353 57.468 65.4806 59.5705C65.4806 59.5705 54.5311 66.9292 45.7714 67.5132C45.7714 67.5132 32.6319 73.2366 23.8719 62.7243C23.8719 62.7243 16.2076 63.7755 18.3974 44.8532C18.3974 44.8532 18.3974 40.181 17.3023 39.1299" fill="#424141"/>
<path d="M68.7655 31.0702C68.7655 31.0702 74.2402 41.5825 73.1451 42.6337C72.0504 43.6851 58.9108 43.6851 58.9108 43.6851L68.7655 31.0702Z" fill="#424141"/>
<path d="M57.8508 59.4538L63.3082 62.6164L61.1007 64.7277H57.8508V59.4538Z" fill="#424141"/>
<path d="M43.5811 65.8043L44.6761 67.9066C44.6761 67.9066 49.0563 68.8007 49.0563 67.9066C49.0563 67.0125 43.5811 65.8043 43.5811 65.8043Z" fill="#424141"/>
<path d="M35.1154 50.9091C36.8784 50.9091 38.3077 48.0601 38.3077 44.5454C38.3077 41.0308 36.8784 38.1818 35.1154 38.1818C33.3524 38.1818 31.9231 41.0308 31.9231 44.5454C31.9231 48.0601 33.3524 50.9091 35.1154 50.9091Z" fill="#211E1E"/>
<path d="M56.1846 48.3637C59.0054 48.3637 61.2923 43.2352 61.2923 36.9091C61.2923 30.583 59.0054 25.4546 56.1846 25.4546C53.3638 25.4546 51.0769 30.583 51.0769 36.9091C51.0769 43.2352 53.3638 48.3637 56.1846 48.3637Z" fill="#211E1E"/>
</svg>
