            <svg  xmlns="http://www.w3.org/2000/svg" viewBox="0 0 1440 320">
                <path fill="#FF5924" fillOpacity="1" d="M0,256L18.5,256C36.9,256,74,256,111,261.3C147.7,267,185,277,222,245.3C258.5,213,295,139,332,122.7C369.2,107,406,149,443,170.7C480,192,517,192,554,208C590.8,224,628,256,665,245.3C701.5,235,738,181,775,149.3C812.3,117,849,107,886,133.3C923.1,160,960,224,997,224C1033.8,224,1071,160,1108,160C1144.6,160,1182,224,1218,234.7C1255.4,245,1292,203,1329,202.7C1366.2,203,1403,245,1422,266.7L1440,288L1440,0L1421.5,0C1403.1,0,1366,0,1329,0C1292.3,0,1255,0,1218,0C1181.5,0,1145,0,1108,0C1070.8,0,1034,0,997,0C960,0,923,0,886,0C849.2,0,812,0,775,0C738.5,0,702,0,665,0C627.7,0,591,0,554,0C516.9,0,480,0,443,0C406.2,0,369,0,332,0C295.4,0,258,0,222,0C184.6,0,148,0,111,0C73.8,0,37,0,18,0L0,0Z"></path>
            </svg>