<svg width="162" height="162" viewBox="0 0 162 162" fill="none" xmlns="http://www.w3.org/2000/svg">
<circle cx="81" cy="81" r="81" fill="white"/>
<path d="M101.197 100.994L109.58 105.825L106.17 109.039H101.197V100.994Z" fill="#FF6737"/>
<path d="M79.2151 110.672L80.8998 113.907C80.8998 113.907 87.6385 115.695 87.6385 113.907C87.6385 112.119 79.2151 110.672 79.2151 110.672Z" fill="#FF6737"/>
<path d="M67.2522 89.2177C65.716 80.1352 53.3826 78.7053 53.3826 78.7053C53.3826 78.7053 59.7796 87.1511 58.4924 100.314C57.935 106.015 64.5378 107.566 67.2522 110.009C71.6466 113.965 76.8282 113.052 79.2966 113.163C100.181 117.684 103.69 100.124 103.69 100.124L100.101 107.556C100.101 107.556 82.5813 122.273 60.6823 103.351C60.6823 103.351 53.6053 90.9409 59.5873 82.3261C61.7772 79.1724 67.252 69.4777 67.252 69.4777C67.252 69.4777 71.6319 69.802 71.6319 76.0188L70.6671 76.6871C74.6624 76.6871 70.6671 76.6871 70.6671 76.6871C70.6671 76.6871 63.2564 77.1494 67.2522 69.4777C71.2477 61.806 67.2522 55.8115 67.2522 55.8115C67.2522 55.8115 76.8314 58.9587 78.2019 64.2216C80.3916 72.6316 74.6625 53.6719 86.649 46C86.649 46 85.1817 58.9654 89.1771 58.9654C89.1771 58.9654 91.3669 61.3015 94.6779 61.3436C94.6779 61.3436 98.5064 49.8359 94.6779 49.8359C94.6779 49.8359 110.64 53.672 102.65 76.6872L102.643 73.9323C102.643 67.7154 109.112 67.7151 109.112 67.7151C109.112 67.7151 102.633 67.7151 109.109 80.1489C115.584 92.5823 109.108 98.799 109.108 98.799C89.6815 123.666 73.8226 110.71 73.8226 110.71L72.5421 107.805C72.5421 107.805 81.2873 121.673 105.282 108.529C105.282 108.529 109.956 106.505 111.051 104.402C112.056 102.472 113.525 99.8665 113.24 95.9926C112.374 84.1938 122 83.3777 122 83.3777C122 83.3777 109.905 79.5749 107.766 84.4287" fill="#FF6737"/>
<path d="M85.5013 94.0068C95.1768 94.0068 103.02 88.5942 103.02 81.9175C103.02 75.2408 95.1768 69.8282 85.5013 69.8282C75.8257 69.8282 67.9821 75.2408 67.9821 81.9175C67.9821 88.5942 75.8257 94.0068 85.5013 94.0068Z" fill="#FF6737"/>
<path d="M72.7267 88.7508L58.4557 100.314L57.3246 96.1093V92.9556V89.6852V87.6995V84.5455L58.4557 81.3918L64.3141 80.3406L72.7267 88.7508Z" fill="#FF6737"/>
<path d="M113.24 88.2834C111.051 91.4368 114.335 103.468 104.481 105.571C104.481 105.571 93.5311 112.929 84.7714 113.513C84.7714 113.513 71.6319 119.237 62.8719 108.724C62.8719 108.724 55.2076 109.775 57.3974 90.8532C57.3974 90.8532 57.3974 86.181 56.3023 85.1299" fill="#FF6737"/>
<path d="M107.766 77.0702C107.766 77.0702 113.24 87.5825 112.145 88.6337C111.05 89.6851 97.9108 89.6851 97.9108 89.6851L107.766 77.0702Z" fill="#FF6737"/>
<path d="M96.8507 105.454L102.308 108.616L100.101 110.728H96.8507V105.454Z" fill="#FF6737"/>
<path d="M82.5811 111.804L83.6761 113.907C83.6761 113.907 88.0563 114.801 88.0563 113.907C88.0563 113.013 82.5811 111.804 82.5811 111.804Z" fill="#FF6737"/>
<path d="M74.1154 96.9091C75.8784 96.9091 77.3077 94.0601 77.3077 90.5454C77.3077 87.0308 75.8784 84.1818 74.1154 84.1818C72.3524 84.1818 70.9231 87.0308 70.9231 90.5454C70.9231 94.0601 72.3524 96.9091 74.1154 96.9091Z" fill="#211E1E"/>
<path d="M95.1846 94.3636C98.0054 94.3636 100.292 89.2352 100.292 82.9091C100.292 76.583 98.0054 71.4545 95.1846 71.4545C92.3638 71.4545 90.0769 76.583 90.0769 82.9091C90.0769 89.2352 92.3638 94.3636 95.1846 94.3636Z" fill="#211E1E"/>
</svg>
